<svg xmlns="http://www.w3.org/2000/svg" viewBox="0 0 32 32" fill="none">
  <circle cx="16" cy="16" r="15" fill="#fdfaf5" stroke="#dcc8a0" stroke-width="1.5"/>
  <path d="M10 13c0-1 1-2 2-2h2l1-1h2l1 1h2c1 0 2 1 2 2v7c0 1-1 2-2 2H12c-1 0-2-1-2-2v-7z" fill="#f5e9d5" stroke="#d9b08a" stroke-width="0.8"/>
  <circle cx="14" cy="18" r="1.5" fill="#d9b08a"/>
  <circle cx="20" cy="18" r="1.5" fill="#d9b08a"/>
  <path d="M14 20.5c0.5 0.5 1.2 0.8 2 0.8s1.5-0.3 2-0.8" stroke="#d9b08a" stroke-width="0.8" stroke-linecap="round"/>
  <circle cx="6" cy="8" r="1.5" fill="#f5e9d5" opacity="0.6"/>
  <circle cx="26" cy="6" r="2" fill="#fae3d5" opacity="0.5"/>
  <circle cx="28" cy="24" r="1.2" fill="#f5e9d5" opacity="0.5"/>
</svg>
